# Blender v2.57 (sub 1) OBJ File: 'areaTower_03.blend'
# www.blender.org
mtllib AreaTower.mtl
o Cube
v 1.495871 -0.000000 -1.394462
v 1.465572 0.000000 1.362527
v -1.412616 0.000000 1.362526
v -1.382315 -0.000000 -1.394462
v 1.894720 1.189767 -1.757664
v 1.979964 1.189767 1.846032
v -1.913941 1.189767 1.846030
v -1.872948 1.189767 -1.883906
v 1.859468 -0.000000 -0.000818
v -0.018971 -0.000000 -1.879257
v 1.495872 0.775709 -1.394461
v -0.018972 0.000000 1.877621
v 1.465571 0.775709 1.362527
v -1.897410 -0.000000 -0.000818
v -1.412616 0.775709 1.362526
v -1.382315 0.775709 -1.394462
v -0.018971 -0.000000 -0.000818
v 1.859468 0.775709 -0.000817
v -0.018972 0.775709 1.877622
v -1.897411 0.775709 -0.000818
v -0.018971 0.775709 -1.879257
v 1.979964 1.625674 1.846032
v 1.894720 1.625674 -1.757665
v -1.872948 1.625674 -1.883906
v -1.913941 1.625674 1.846029
v 0.973329 1.617258 1.868657
v 0.901597 1.617258 0.863293
v 1.945854 1.617258 0.896134
v -0.028478 1.608842 2.542904
v 2.512869 1.608842 0.001560
v 0.912998 1.617258 -0.880671
v 1.857534 1.617258 -0.820344
v 0.850165 1.617257 -1.827713
v -0.028476 1.608842 -2.539786
v -0.876565 1.617258 -0.880672
v -0.868880 1.617257 -1.839213
v -1.798256 1.617258 -0.909838
v -2.569822 1.608842 0.001558
v -0.887965 1.617258 0.863293
v -1.867372 1.617258 0.843839
v -0.891255 1.617258 1.819957
v -0.028477 1.189067 0.001559
v -0.891255 1.193625 1.819957
v -1.867372 1.193625 0.843839
v -0.887965 1.193625 0.863293
v -2.569822 1.189417 0.001558
v -1.798256 1.193625 -0.909838
v -0.868880 1.193625 -1.839213
v -0.876565 1.193625 -0.880672
v -0.028476 1.189417 -2.539786
v 0.850165 1.193625 -1.827713
v 1.857534 1.193625 -0.820344
v 0.912998 1.193625 -0.880671
v 2.512869 1.189417 0.001560
v -0.028478 1.189417 2.542904
v 1.945854 1.193625 0.896134
v 0.901597 1.193625 0.863293
v 0.973329 1.193625 1.868657
v 1.980273 2.249373 1.846159
v 0.973638 2.375954 1.868784
v 1.946163 2.375954 0.896261
v 1.895028 2.249373 -1.757538
v 1.857843 2.375954 -0.820217
v 0.850474 2.375954 -1.827586
v -1.872639 2.249373 -1.883779
v -0.868571 2.375954 -1.839086
v -1.797947 2.375954 -0.909711
v -1.913633 2.249373 1.846156
v -1.867063 2.375954 0.843966
v -0.890946 2.375954 1.820083
v -0.028169 2.367538 2.543031
v -2.569513 2.367538 0.001685
v -0.028167 2.367538 -2.539659
v 2.513177 2.367538 0.001687
v -0.887657 2.494751 0.863419
v -0.028168 1.329059 0.001686
v -0.876257 2.494751 -0.880545
v 0.913306 2.494751 -0.880544
v 0.901906 2.494751 0.863420
v -0.028168 1.249753 0.001686
vt 0.084202 0.587800
vt 0.068054 0.517214
vt 0.150070 0.534760
vt 0.135419 0.610543
vt 0.033074 0.580111
vt 0.756150 0.585504
vt 0.690633 0.533398
vt 0.770265 0.515292
vt 0.000000 0.541677
vt 0.707515 0.609074
vt 0.649846 0.606472
vt 0.601500 0.546300
vt 0.608075 0.623550
vt 0.563093 0.613345
vt 0.513552 0.549455
vt 0.514391 0.624805
vt 0.375795 0.614309
vt 0.330069 0.548827
vt 0.417341 0.550273
vt 0.417553 0.623153
vt 0.328522 0.624217
vt 0.464063 0.613735
vt 0.280533 0.614899
vt 0.243791 0.547112
vt 0.237800 0.624804
vt 0.194111 0.608431
vt 0.570407 0.630541
vt 0.674600 0.734742
vt 0.564673 0.693875
vt 0.639406 0.624805
vt 0.675992 0.663784
vt 0.604024 0.734816
vt 0.564673 0.773896
vt 0.570410 0.838910
vt 0.639124 0.852337
vt 0.677392 0.808186
vt 0.718851 0.852340
vt 0.778776 0.838908
vt 0.785608 0.778341
vt 0.749361 0.737154
vt 0.785608 0.695758
vt 0.778776 0.630540
vt 0.715596 0.624805
vt 0.315537 0.745555
vt 0.300673 0.786604
vt 0.273004 0.727957
vt 0.251944 0.772508
vt 0.291385 0.914533
vt 0.244475 0.923743
vt 0.287152 0.870667
vt 0.240741 0.877346
vt 0.125592 0.978387
vt 0.101248 0.941307
vt 0.163625 0.953886
vt 0.138176 0.914362
vt 0.160845 0.643234
vt 0.192814 0.677767
vt 0.126366 0.672782
vt 0.156258 0.711738
vt 0.158144 0.814889
vt 0.307070 0.830770
vt 0.239510 0.689628
vt 0.208731 0.953359
vt 0.055866 0.921397
vt 0.033972 0.881796
vt 0.057495 0.836469
vt 0.259074 0.658430
vt 0.304248 0.697857
vt 0.343735 0.782935
vt 0.343735 0.836444
vt 0.268888 0.959008
vt 0.221111 0.986903
vt 0.327521 0.886472
vt 0.080157 0.978525
vt 0.032035 0.947451
vt 0.168547 0.996370
vt 0.000000 0.906087
vt 0.208036 0.636995
vt 0.162000 0.624805
vt 0.115550 0.630906
vt 0.121904 0.996303
vt 0.306293 0.926250
vt 0.333041 0.737596
vt 0.453656 0.742422
vt 0.456458 0.668960
vt 0.557840 0.638238
vt 0.497920 0.624806
vt 0.349472 0.638237
vt 0.418184 0.624805
vt 0.528425 0.739993
vt 0.557840 0.846606
vt 0.564673 0.781392
vt 0.564673 0.698800
vt 0.455055 0.813363
vt 0.349471 0.846606
vt 0.418467 0.852343
vt 0.494665 0.852343
vt 0.383087 0.742330
vt 0.343735 0.703246
vt 0.343735 0.783277
vt 1.000000 0.549660
vt 1.000000 0.623342
vt 0.944536 0.623342
vt 0.944536 0.549659
vt 0.827058 0.549659
vt 0.827058 0.623342
vt 0.770265 0.623342
vt 0.770265 0.549659
vt 0.994212 0.473842
vt 0.994212 0.547524
vt 0.940749 0.547524
vt 0.940749 0.473842
vt 0.825137 0.213102
vt 0.825137 0.286785
vt 0.770265 0.286785
vt 0.770265 0.213102
vt 0.797164 0.853011
vt 0.797164 0.926693
vt 0.736592 0.926693
vt 0.736592 0.853011
vt 0.885225 0.548988
vt 0.885225 0.624805
vt 0.825839 0.473842
vt 0.884110 0.473171
vt 0.825840 0.547525
vt 0.884110 0.548988
vt 0.770265 0.473842
vt 0.770265 0.547525
vt 0.879523 0.212431
vt 0.879523 0.288249
vt 0.940218 0.213102
vt 0.940218 0.286785
vt 0.995245 0.213102
vt 0.995245 0.286785
vt 0.681485 0.852340
vt 0.681485 0.928158
vt 0.623109 0.853011
vt 0.623109 0.926694
vt 0.564673 0.853011
vt 0.564673 0.926694
vt 0.501854 0.450964
vt 0.590571 0.448830
vt 0.404522 0.451788
vt 0.679672 0.444932
vt 0.767168 0.439504
vt 0.133241 0.442932
vt 0.042357 0.437137
vt 0.229636 0.447766
vt 0.315408 0.450523
vt 0.976186 0.139099
vt 0.873575 0.102611
vt 0.976186 0.055208
vt 0.910063 0.000000
vt 0.770964 0.066123
vt 0.826172 0.000000
vt 0.920279 0.212431
vt 0.837087 0.205222
vt 0.770265 0.157223
vn 0.178442 0.001404 0.983917
vn -0.625996 -0.471023 0.621479
vn -0.024537 -0.473708 0.880337
vn -0.043184 0.208441 0.977050
vn -0.649983 -0.416150 0.635823
vn -0.980560 -0.004212 -0.196112
vn -0.885678 -0.464187 -0.009033
vn -0.979034 0.203650 -0.001923
vn -0.980224 0.015778 0.197180
vn -0.628925 -0.461440 -0.625660
vn -0.653218 -0.414045 -0.633900
vn 0.192602 0.002167 -0.981262
vn -0.009522 -0.454604 -0.890622
vn -0.008393 0.207190 -0.978240
vn 0.975311 0.065371 0.210883
vn 0.892697 -0.450423 -0.012818
vn 0.659413 -0.429579 -0.616901
vn 0.687826 -0.379589 -0.618671
vn 0.976165 0.213019 -0.040803
vn -0.140110 0.075106 -0.987274
vn 0.965178 -0.093722 -0.244087
vn 0.626942 -0.499954 0.597430
vn 0.660268 -0.419904 0.622639
vn -0.189154 -0.078005 0.978820
vn -0.836085 -0.548540 -0.002960
vn -0.003601 -0.999969 -0.001617
vn -0.896634 -0.439100 -0.056673
vn -0.900906 -0.427778 0.073000
vn 0.144658 -0.977966 0.150395
vn 0.153966 -0.975555 -0.156743
vn 0.043336 -0.433973 0.899869
vn -0.042787 -0.554613 0.830988
vn -0.051515 -0.395306 0.917081
vn -0.143101 -0.981506 -0.127049
vn 0.912381 -0.397931 -0.095706
vn 0.828761 -0.557848 -0.043794
vn 0.893002 -0.445967 0.059847
vn -0.193304 -0.964415 0.180273
vn 0.008484 -0.449843 -0.893063
vn -0.005768 -0.549852 -0.835231
vn 0.055605 -0.435957 -0.898221
vn 0.631642 0.494583 0.596973
vn 0.635090 0.740135 0.220862
vn 0.246895 0.734336 0.632252
vn -0.247536 0.933805 -0.258248
vn 0.644551 0.496445 -0.581439
vn 0.292978 0.728782 -0.618854
vn 0.616474 0.742973 -0.260598
vn -0.233406 0.941649 0.242409
vn -0.624287 0.493820 -0.605274
vn -0.605060 0.753716 -0.256478
vn -0.262001 0.748985 -0.608509
vn 0.258614 0.932310 0.252754
vn -0.619861 0.496445 0.607654
vn -0.267922 0.746788 0.608661
vn -0.607898 0.749931 0.260842
vn 0.257820 0.931272 -0.257332
vn 0.007660 0.999939 -0.001831
vn 0.775658 0.629200 -0.049532
vn -0.046052 0.627033 0.777612
vn -0.004028 0.624317 -0.781121
vn -0.783227 0.621662 -0.003754
vn -0.714530 0.000092 0.699576
vn -0.718375 0.000244 -0.695639
vn 0.743675 -0.000092 -0.668508
vn 0.727378 -0.000244 0.686178
vn 0.000031 0.999969 0.000000
vn -0.290506 0.915128 -0.279458
vn -0.325144 0.887600 0.326151
vn 0.293374 0.906003 0.305032
vn 0.309824 0.901273 -0.302744
vn -0.012238 -0.641652 -0.766869
vn -0.549669 -0.623005 -0.556505
vn 0.573656 -0.612995 -0.543199
vn -0.770135 -0.637806 -0.004761
vn -0.556505 -0.623005 0.549669
vn -0.007691 -0.638478 0.769585
vn 0.571032 -0.616779 0.541704
vn 0.758110 -0.652028 0.009857
vn 0.000000 -1.000000 0.000000
usemtl Material_SlowingTowerTexture.j
s 1
f 43/1/1 15/2/2 19/3/3
f 55/4/4 43/1/1 19/3/3
f 43/1/1 7/5/5 15/2/2
f 44/6/6 20/7/7 15/8/2
f 7/5/5 44/9/6 15/2/2
f 44/6/6 46/10/8 20/7/7
f 47/11/9 16/12/10 20/7/7
f 46/10/8 47/11/9 20/7/7
f 47/11/9 8/13/11 16/12/10
f 48/14/12 21/15/13 16/12/10
f 8/13/11 48/14/12 16/12/10
f 48/14/12 50/16/14 21/15/13
f 52/17/15 18/18/16 11/19/17
f 5/20/18 52/17/15 11/19/17
f 52/17/15 54/21/19 18/18/16
f 51/22/20 11/19/17 21/15/13
f 50/16/14 51/22/20 21/15/13
f 51/22/20 5/20/18 11/19/17
f 56/23/21 13/24/22 18/18/16
f 54/21/19 56/23/21 18/18/16
f 56/23/21 6/25/23 13/24/22
f 58/26/24 19/3/3 13/24/22
f 6/25/23 58/26/24 13/24/22
f 58/26/24 55/4/4 19/3/3
f 38/27/25 80/28/26 40/29/27
f 37/30/28 80/28/26 38/27/25
f 35/31/29 80/28/26 37/30/28
f 39/32/30 40/29/27 80/28/26
f 39/32/30 80/28/26 41/33/31
f 29/34/32 41/33/31 80/28/26
f 26/35/33 29/34/32 80/28/26
f 26/35/33 80/28/26 27/36/34
f 27/36/34 80/28/26 28/37/35
f 28/37/35 80/28/26 30/38/36
f 30/38/36 80/28/26 32/39/37
f 31/40/38 32/39/37 80/28/26
f 31/40/38 80/28/26 33/41/39
f 33/41/39 80/28/26 34/42/40
f 34/42/40 80/28/26 36/43/41
f 35/31/29 36/43/41 80/28/26
f 59/44/42 61/45/43 60/46/44
f 61/45/43 79/47/45 60/46/44
f 62/48/46 64/49/47 63/50/48
f 64/49/47 78/51/49 63/50/48
f 65/52/50 67/53/51 66/54/52
f 67/53/51 77/55/53 66/54/52
f 68/56/54 70/57/55 69/58/56
f 70/57/55 75/59/57 69/58/56
f 76/60/58 79/47/45 74/61/59
f 79/47/45 61/45/43 74/61/59
f 71/62/60 60/46/44 79/47/45
f 71/62/60 79/47/45 76/60/58
f 76/60/58 78/51/49 73/63/61
f 78/51/49 64/49/47 73/63/61
f 74/61/59 63/50/48 78/51/49
f 74/61/59 78/51/49 76/60/58
f 76/60/58 77/55/53 72/64/62
f 77/55/53 67/53/51 72/64/62
f 73/63/61 66/54/52 77/55/53
f 73/63/61 77/55/53 76/60/58
f 76/60/58 75/59/57 71/62/60
f 75/59/57 70/57/55 71/62/60
f 72/64/62 69/65/56 75/66/57
f 72/64/62 75/66/57 76/60/58
f 29/67/32 26/68/33 71/62/60
f 26/68/33 60/46/44 71/62/60
f 28/69/35 30/70/36 74/61/59
f 28/69/35 74/61/59 61/45/43
f 33/71/39 34/72/40 73/63/61
f 33/71/39 73/63/61 64/49/47
f 30/70/36 32/73/37 74/61/59
f 32/73/37 63/50/48 74/61/59
f 37/74/28 38/75/25 72/64/62
f 37/74/28 72/64/62 67/53/51
f 34/72/40 36/76/41 73/63/61
f 36/76/41 66/54/52 73/63/61
f 38/75/25 40/77/27 72/64/62
f 40/77/27 69/65/56 72/64/62
f 41/78/31 29/67/32 71/62/60
f 41/78/31 71/62/60 70/57/55
f 25/79/63 41/78/31 68/56/54
f 41/78/31 70/57/55 68/56/54
f 40/80/27 25/79/63 68/56/54
f 40/80/27 68/56/54 69/58/56
f 24/81/64 37/74/28 65/52/50
f 37/74/28 67/53/51 65/52/50
f 36/76/41 24/81/64 65/52/50
f 36/76/41 65/52/50 66/54/52
f 23/82/65 33/71/39 62/48/46
f 33/71/39 64/49/47 62/48/46
f 32/73/37 23/82/65 62/48/46
f 32/73/37 62/48/46 63/50/48
f 22/83/66 28/69/35 59/44/42
f 28/69/35 61/45/43 59/44/42
f 26/68/33 22/83/66 59/44/42
f 26/68/33 59/44/42 60/46/44
f 42/84/67 57/85/68 54/86/19
f 57/85/68 56/87/21 54/86/19
f 55/88/4 58/89/24 57/85/68
f 55/88/4 57/85/68 42/84/67
f 42/84/67 53/90/69 50/91/14
f 53/90/69 51/92/20 50/91/14
f 54/86/19 52/93/15 53/90/69
f 54/86/19 53/90/69 42/84/67
f 42/84/67 49/94/70 46/95/8
f 49/94/70 47/96/9 46/95/8
f 50/91/14 48/97/12 49/94/70
f 50/91/14 49/94/70 42/84/67
f 42/84/67 45/98/71 55/88/4
f 45/98/71 43/99/1 55/88/4
f 46/95/8 44/100/6 45/98/71
f 46/95/8 45/98/71 42/84/67
f 45/101/71 39/102/30 41/103/31
f 45/101/71 41/103/31 43/104/1
f 44/105/6 40/106/27 39/107/30
f 44/105/6 39/107/30 45/108/71
f 49/109/70 35/110/29 37/111/28
f 49/109/70 37/111/28 47/112/9
f 52/113/15 32/114/37 31/115/38
f 52/113/15 31/115/38 53/116/69
f 57/117/68 27/118/34 28/119/35
f 57/117/68 28/119/35 56/120/21
f 7/121/5 43/104/1 41/103/31
f 7/121/5 41/103/31 25/122/63
f 44/105/6 7/121/5 40/106/27
f 7/121/5 25/122/63 40/106/27
f 48/123/12 8/124/11 36/125/41
f 8/124/11 24/126/64 36/125/41
f 8/124/11 47/112/9 37/111/28
f 8/124/11 37/111/28 24/126/64
f 49/127/70 48/123/12 36/125/41
f 49/127/70 36/125/41 35/128/29
f 52/113/15 5/129/18 32/114/37
f 5/129/18 23/130/65 32/114/37
f 5/129/18 51/131/20 33/132/39
f 5/129/18 33/132/39 23/130/65
f 51/131/20 53/133/69 31/134/38
f 51/131/20 31/134/38 33/132/39
f 6/135/23 56/120/21 28/119/35
f 6/135/23 28/119/35 22/136/66
f 58/137/24 6/135/23 26/138/33
f 6/135/23 22/136/66 26/138/33
f 57/139/68 58/137/24 26/138/33
f 57/139/68 26/138/33 27/140/34
f 21/15/13 10/141/72 4/142/73
f 21/15/13 4/142/73 16/12/10
f 11/19/17 1/143/74 21/15/13
f 1/143/74 10/141/72 21/15/13
f 14/144/75 20/7/7 16/12/10
f 14/144/75 16/12/10 4/142/73
f 3/145/76 15/8/2 20/7/7
f 3/145/76 20/7/7 14/144/75
f 12/146/77 19/3/3 3/147/76
f 19/3/3 15/2/2 3/147/76
f 2/148/78 13/24/22 19/3/3
f 2/148/78 19/3/3 12/146/77
f 9/149/79 18/18/16 13/24/22
f 9/149/79 13/24/22 2/148/78
f 1/143/74 11/19/17 18/18/16
f 1/143/74 18/18/16 9/149/79
f 10/150/72 17/151/80 4/152/73
f 17/151/80 14/153/75 4/152/73
f 17/151/80 12/154/77 3/155/76
f 17/151/80 3/155/76 14/153/75
f 1/156/74 9/157/79 17/151/80
f 1/156/74 17/151/80 10/150/72
f 9/157/79 2/158/78 17/151/80
f 2/158/78 12/154/77 17/151/80
